REM DIRINDEX 1\2,1\3,1\4,1\5,1\6
REM DIRNAME cjc129,folder01,folder02,folder03,folder04,folder05
TITLE ""
FILE "DISC2Track08.mp3" MP3
  TRACK 01 AUDIO
    TITLE "0:"
    INDEX 01 00:00:00
  TRACK 02 AUDIO
    TITLE "3:cjc129_1146"
    INDEX 01 00:00:05
  TRACK 03 AUDIO
    TITLE "0:"
    INDEX 01 00:02:34
  TRACK 04 AUDIO
    TITLE "5:cjc129_1147"
    INDEX 01 00:02:67
  TRACK 05 AUDIO
    TITLE "0:"
    INDEX 01 00:05:05
  TRACK 06 AUDIO
    TITLE "4:cjc129_1148"
    INDEX 01 00:05:69
  TRACK 07 AUDIO
    TITLE "0:"
    INDEX 01 00:08:23
  TRACK 08 AUDIO
    TITLE "6:cjc129_1149"
    INDEX 01 00:08:54
  TRACK 09 AUDIO
    TITLE "0:"
    INDEX 01 00:12:69
  TRACK 10 AUDIO
    TITLE "3:cjc129_1150"
    INDEX 01 00:14:45
  TRACK 11 AUDIO
    TITLE "0:"
    INDEX 01 00:16:32
  TRACK 12 AUDIO
    TITLE "5:cjc129_1151"
    INDEX 01 00:16:65
  TRACK 13 AUDIO
    TITLE "0:"
    INDEX 01 00:19:01
  TRACK 14 AUDIO
    TITLE "4:cjc129_1152"
    INDEX 01 00:19:69
  TRACK 15 AUDIO
    TITLE "0:"
    INDEX 01 00:21:58
  TRACK 16 AUDIO
    TITLE "6:cjc129_1153"
    INDEX 01 00:22:15
  TRACK 17 AUDIO
    TITLE "0:"
    INDEX 01 00:27:20
  TRACK 18 AUDIO
    TITLE "3:cjc129_1154"
    INDEX 01 00:28:70
  TRACK 19 AUDIO
    TITLE "0:"
    INDEX 01 00:30:20
  TRACK 20 AUDIO
    TITLE "5:cjc129_1155"
    INDEX 01 00:30:52
  TRACK 21 AUDIO
    TITLE "0:"
    INDEX 01 00:32:60
  TRACK 22 AUDIO
    TITLE "4:cjc129_1156"
    INDEX 01 00:33:50
  TRACK 23 AUDIO
    TITLE "0:"
    INDEX 01 00:34:73
  TRACK 24 AUDIO
    TITLE "6:cjc129_1157"
    INDEX 01 00:35:31
  TRACK 25 AUDIO
    TITLE "0:"
    INDEX 01 00:39:66
  TRACK 26 AUDIO
    TITLE "3:cjc129_1158"
    INDEX 01 00:41:42
  TRACK 27 AUDIO
    TITLE "0:"
    INDEX 01 00:42:70
  TRACK 28 AUDIO
    TITLE "5:cjc129_1159"
    INDEX 01 00:43:27
  TRACK 29 AUDIO
    TITLE "0:"
    INDEX 01 00:47:36
  TRACK 30 AUDIO
    TITLE "4:cjc129_1160"
    INDEX 01 00:48:26
  TRACK 31 AUDIO
    TITLE "0:"
    INDEX 01 00:49:53
  TRACK 32 AUDIO
    TITLE "6:cjc129_1161"
    INDEX 01 00:50:09
  TRACK 33 AUDIO
    TITLE "0:"
    INDEX 01 00:55:06
  TRACK 34 AUDIO
    TITLE "3:cjc129_1162"
    INDEX 01 00:56:55
  TRACK 35 AUDIO
    TITLE "0:"
    INDEX 01 00:58:01
  TRACK 36 AUDIO
    TITLE "5:cjc129_1163"
    INDEX 01 00:58:32
  TRACK 37 AUDIO
    TITLE "0:"
    INDEX 01 01:02:38
  TRACK 38 AUDIO
    TITLE "4:cjc129_1164"
    INDEX 01 01:03:29
  TRACK 39 AUDIO
    TITLE "0:"
    INDEX 01 01:04:52
  TRACK 40 AUDIO
    TITLE "6:cjc129_1165"
    INDEX 01 01:05:07
  TRACK 41 AUDIO
    TITLE "0:"
    INDEX 01 01:09:67
  TRACK 42 AUDIO
    TITLE "3:cjc129_1166"
    INDEX 01 01:11:43
  TRACK 43 AUDIO
    TITLE "0:"
    INDEX 01 01:12:62
  TRACK 44 AUDIO
    TITLE "5:cjc129_1167"
    INDEX 01 01:13:18
  TRACK 45 AUDIO
    TITLE "0:"
    INDEX 01 01:17:35
  TRACK 46 AUDIO
    TITLE "4:cjc129_1168"
    INDEX 01 01:18:25
  TRACK 47 AUDIO
    TITLE "0:"
    INDEX 01 01:19:44
  TRACK 48 AUDIO
    TITLE "6:cjc129_1169"
    INDEX 01 01:19:74
  TRACK 49 AUDIO
    TITLE "0:"
    INDEX 01 01:24:73
  TRACK 50 AUDIO
    TITLE "3:cjc129_1170"
    INDEX 01 01:26:48
  TRACK 51 AUDIO
    TITLE "0:"
    INDEX 01 01:27:63
  TRACK 52 AUDIO
    TITLE "5:cjc129_1171"
    INDEX 01 01:28:24
  TRACK 53 AUDIO
    TITLE "0:"
    INDEX 01 01:32:35
  TRACK 54 AUDIO
    TITLE "4:cjc129_1172"
    INDEX 01 01:33:27
  TRACK 55 AUDIO
    TITLE "0:"
    INDEX 01 01:34:40
  TRACK 56 AUDIO
    TITLE "6:cjc129_1173"
    INDEX 01 01:35:02
  TRACK 57 AUDIO
    TITLE "0:"
    INDEX 01 01:39:31
  TRACK 58 AUDIO
    TITLE "3:cjc129_1174"
    INDEX 01 01:41:09
  TRACK 59 AUDIO
    TITLE "0:"
    INDEX 01 01:42:43
  TRACK 60 AUDIO
    TITLE "5:cjc129_1175"
    INDEX 01 01:42:73
  TRACK 61 AUDIO
    TITLE "0:"
    INDEX 01 01:45:51
  TRACK 62 AUDIO
    TITLE "4:cjc129_1176"
    INDEX 01 01:46:43
  TRACK 63 AUDIO
    TITLE "0:"
    INDEX 01 01:48:01
  TRACK 64 AUDIO
    TITLE "6:cjc129_1177"
    INDEX 01 01:48:32
  TRACK 65 AUDIO
    TITLE "0:"
    INDEX 01 01:53:08
  TRACK 66 AUDIO
    TITLE "3:cjc129_1178"
    INDEX 01 01:54:58
  TRACK 67 AUDIO
    TITLE "0:"
    INDEX 01 01:56:04
  TRACK 68 AUDIO
    TITLE "5:cjc129_1179"
    INDEX 01 01:56:37
  TRACK 69 AUDIO
    TITLE "0:"
    INDEX 01 01:59:18
  TRACK 70 AUDIO
    TITLE "4:cjc129_1180"
    INDEX 01 02:00:08
  TRACK 71 AUDIO
    TITLE "0:"
    INDEX 01 02:01:25
  TRACK 72 AUDIO
    TITLE "6:cjc129_1181"
    INDEX 01 02:01:62
  TRACK 73 AUDIO
    TITLE "0:"
    INDEX 01 02:06:38
